<svg width="317" height="238" viewBox="0 0 317 238" fill="none" xmlns="http://www.w3.org/2000/svg">
<rect width="317" height="238" rx="15" fill="#D9D9D9" fill-opacity="0.1"/>
<rect x="1.5" y="1.5" width="314" height="235" rx="13.5" stroke="#B7B7B7" stroke-opacity="0.13" stroke-width="3"/>
<path d="M254.046 206.329C254.62 206.329 255.191 206.129 255.629 205.73C256.506 204.934 256.506 203.64 255.629 202.844L129.84 88.2217C128.964 87.4233 127.546 87.4233 126.672 88.2217C125.796 89.0201 125.796 90.3116 126.672 91.108L252.462 205.73C252.9 206.129 253.472 206.329 254.046 206.329Z" fill="#B7B7B7" fill-opacity="0.2"/>
<path d="M85.7987 70.4137C68.2366 54.4107 58.7749 37.0865 64.6654 31.7189C70.556 26.3513 89.5681 34.973 107.13 50.976C124.692 66.9789 134.154 84.3032 128.263 89.6708C122.373 95.0383 103.361 86.4167 85.7987 70.4137Z" fill="#B7B7B7" fill-opacity="0.2"/>
<path d="M238.273 189.913C230.27 188.627 227.192 169.956 231.399 148.21C235.605 126.464 245.504 109.878 253.508 111.163C261.512 112.449 264.59 131.12 260.383 152.866C256.176 174.612 246.277 191.199 238.273 189.913Z" fill="#B7B7B7" fill-opacity="0.2"/>
<path d="M198.821 153.966C190.818 152.68 187.74 134.01 191.946 112.263C196.153 90.5174 206.052 73.9309 214.056 75.2166C222.06 76.5022 225.138 95.1731 220.931 116.919C216.724 138.665 206.825 155.252 198.821 153.966Z" fill="#B7B7B7" fill-opacity="0.2"/>
<path d="M159.391 118.023C151.387 116.737 148.309 98.0661 152.516 76.32C156.723 54.5739 166.622 37.9874 174.626 39.2731C182.629 40.5587 185.707 59.2296 181.5 80.9757C177.294 102.722 167.395 119.308 159.391 118.023Z" fill="#B7B7B7" fill-opacity="0.2"/>
<path d="M151.846 203.794C150.435 196.501 168.638 187.481 192.502 183.648C216.367 179.815 236.857 182.619 238.268 189.913C239.679 197.206 221.477 206.226 197.612 210.059C173.747 213.892 153.257 211.088 151.846 203.794Z" fill="#B7B7B7" fill-opacity="0.2"/>
<path d="M112.402 167.847C110.991 160.554 129.193 151.534 153.058 147.701C176.923 143.867 197.413 146.672 198.824 153.965C200.235 161.259 182.032 170.278 158.167 174.112C134.303 177.945 113.813 175.141 112.402 167.847Z" fill="#B7B7B7" fill-opacity="0.2"/>
<path d="M72.9574 131.9C71.5465 124.607 89.749 115.587 113.614 111.754C137.479 107.921 157.969 110.725 159.379 118.018C160.79 125.312 142.588 134.332 118.723 138.165C94.8583 141.998 74.3683 139.194 72.9574 131.9Z" fill="#B7B7B7" fill-opacity="0.2"/>
</svg>
