<svg xmlns="http://www.w3.org/2000/svg" xmlns:xlink="http://www.w3.org/1999/xlink" version="1.1" width="256" height="256" viewBox="0 0 256 256" xml:space="preserve">

<defs>
</defs>
<g style="stroke: none; stroke-width: 0; stroke-dasharray: none; stroke-linecap: butt; stroke-linejoin: miter; stroke-miterlimit: 10; fill: none; fill-rule: nonzero; opacity: 1;" transform="translate(1.4065934065934016 1.4065934065934016) scale(2.81 2.81)" >
	<path d="M 79.769 89.948 H 19.667 c -0.552 0 -1 -0.447 -1 -1 s 0.448 -1 1 -1 h 60.101 c 0.553 0 1 0.447 1 1 S 80.321 89.948 79.769 89.948 z" style="stroke: none; stroke-width: 1; stroke-dasharray: none; stroke-linecap: butt; stroke-linejoin: miter; stroke-miterlimit: 10; fill: #E8BD68; fill-rule: nonzero; opacity: 1;" transform=" matrix(1 0 0 1 0 0) " stroke-linecap="round" />
	<path d="M 83.147 44.599 H 66.826 c -1.966 0 -3.564 -1.599 -3.564 -3.564 c 0 -0.466 0.093 -0.928 0.271 -1.357 c -0.109 -0.413 -0.165 -0.833 -0.165 -1.255 c 0 -2.719 2.212 -4.931 4.931 -4.931 c 0.397 0 0.789 0.048 1.172 0.142 c 0.723 -1.136 1.979 -1.846 3.4 -1.779 c 1.039 -1.3 2.598 -2.059 4.286 -2.059 c 2.595 0 4.78 1.774 5.354 4.232 c 1.427 0.475 2.429 1.809 2.429 3.367 c 0 0.18 -0.014 0.358 -0.042 0.535 c 1.094 0.62 1.814 1.797 1.814 3.104 C 86.712 43 85.113 44.599 83.147 44.599 z M 68.298 35.492 c -1.616 0 -2.931 1.314 -2.931 2.931 c 0 0.334 0.061 0.669 0.179 0.996 c 0.101 0.278 0.073 0.586 -0.075 0.842 c -0.139 0.239 -0.209 0.5 -0.209 0.774 c 0 0.862 0.702 1.564 1.564 1.564 h 16.321 c 0.862 0 1.564 -0.702 1.564 -1.564 c 0 -0.739 -0.524 -1.383 -1.246 -1.532 c -0.304 -0.063 -0.562 -0.262 -0.697 -0.541 s -0.136 -0.604 0.002 -0.882 c 0.112 -0.227 0.169 -0.458 0.169 -0.686 c 0 -0.797 -0.604 -1.461 -1.405 -1.543 c -0.474 -0.048 -0.848 -0.424 -0.894 -0.898 c -0.176 -1.8 -1.673 -3.158 -3.484 -3.158 c -1.216 0 -2.326 0.62 -2.972 1.659 c -0.225 0.36 -0.646 0.538 -1.065 0.449 c -0.159 -0.035 -0.286 -0.052 -0.399 -0.052 c -0.817 0 -1.532 0.531 -1.778 1.322 c -0.087 0.277 -0.289 0.502 -0.555 0.619 c -0.266 0.117 -0.568 0.112 -0.83 -0.013 C 69.155 35.588 68.732 35.492 68.298 35.492 z" style="stroke: none; stroke-width: 1; stroke-dasharray: none; stroke-linecap: butt; stroke-linejoin: miter; stroke-miterlimit: 10; fill: #E8BD68; fill-rule: nonzero; opacity: 1;" transform=" matrix(1 0 0 1 0 0) " stroke-linecap="round" />
	<path d="M 73.56 27.895 H 21.397 c -3.417 0 -6.196 -2.78 -6.196 -6.196 c 0 -2.531 1.554 -4.782 3.827 -5.726 c -0.156 -0.542 -0.235 -1.094 -0.235 -1.65 c 0 -2.905 2.004 -5.361 4.776 -6.006 c 0.834 -4.821 4.993 -8.367 9.97 -8.367 c 3.287 0 6.309 1.565 8.212 4.219 c 0.27 -0.036 0.526 -0.053 0.779 -0.053 c 2.625 0 4.958 1.489 6.093 3.799 c 0.926 -0.316 1.886 -0.476 2.868 -0.476 c 2.368 0 4.632 0.941 6.307 2.603 c 0.641 -0.174 1.295 -0.262 1.951 -0.262 c 2.426 0 4.661 1.156 6.064 3.078 c 0.994 -0.598 2.127 -0.919 3.28 -0.919 c 2.672 0 5.056 1.679 5.998 4.152 c 2.63 0.685 4.479 3.03 4.479 5.795 C 79.57 25.198 76.874 27.895 73.56 27.895 z M 33.539 1.949 c -4.202 0 -7.677 3.15 -8.083 7.327 c -0.046 0.474 -0.419 0.85 -0.893 0.898 c -2.149 0.22 -3.771 2.003 -3.771 4.148 c 0 0.622 0.151 1.242 0.448 1.844 c 0.137 0.278 0.138 0.604 0.002 0.882 c -0.136 0.278 -0.394 0.478 -0.697 0.541 c -1.938 0.399 -3.345 2.127 -3.345 4.109 c 0 2.314 1.882 4.196 4.196 4.196 H 73.56 c 2.212 0 4.011 -1.799 4.011 -4.011 c 0 -1.983 -1.43 -3.642 -3.4 -3.946 c -0.39 -0.06 -0.708 -0.344 -0.813 -0.725 c -0.527 -1.929 -2.28 -3.277 -4.264 -3.277 c -1.067 0 -2.071 0.384 -2.904 1.111 c -0.23 0.201 -0.543 0.287 -0.843 0.229 c -0.302 -0.057 -0.56 -0.249 -0.701 -0.521 c -0.956 -1.837 -2.832 -2.978 -4.896 -2.978 c -0.642 0 -1.282 0.116 -1.903 0.345 c -0.39 0.144 -0.828 0.032 -1.101 -0.282 c -2.011 -2.314 -5.451 -3.055 -8.244 -1.72 c -0.261 0.125 -0.564 0.13 -0.831 0.014 c -0.266 -0.116 -0.468 -0.342 -0.555 -0.619 c -0.634 -2.035 -2.477 -3.401 -4.585 -3.401 c -0.307 0 -0.634 0.041 -1.031 0.128 c -0.415 0.091 -0.841 -0.088 -1.064 -0.449 C 38.937 3.386 36.359 1.949 33.539 1.949 z" style="stroke: none; stroke-width: 1; stroke-dasharray: none; stroke-linecap: butt; stroke-linejoin: miter; stroke-miterlimit: 10; fill:#E8BD68; fill-rule: nonzero; opacity: 1;" transform=" matrix(1 0 0 1 0 0) " stroke-linecap="round" />
	<path d="M 32.765 89.948 c -0.457 0 -0.869 -0.315 -0.975 -0.779 c -3.065 -13.556 2.144 -21.612 13.507 -32.593 c 10.227 -9.892 6.744 -17.387 2.711 -26.066 c -0.495 -1.066 -0.992 -2.136 -1.463 -3.215 c -0.222 -0.506 0.01 -1.096 0.516 -1.317 c 0.508 -0.22 1.097 0.011 1.316 0.516 c 0.466 1.064 0.956 2.121 1.445 3.173 c 3.989 8.586 8.114 17.465 -3.136 28.346 C 35.86 68.477 30.886 76.1 33.741 88.728 c 0.122 0.539 -0.216 1.074 -0.755 1.196 C 32.912 89.94 32.838 89.948 32.765 89.948 z" style="stroke: none; stroke-width: 1; stroke-dasharray: none; stroke-linecap: butt; stroke-linejoin: miter; stroke-miterlimit: 10; fill:#E8BD68; fill-rule: nonzero; opacity: 1;" transform=" matrix(1 0 0 1 0 0) " stroke-linecap="round" />
	<path d="M 44.093 60.161 c -0.351 0 -0.692 -0.186 -0.875 -0.514 c -2.157 -3.875 -6.782 -5.104 -11.254 -6.292 c -3.733 -0.992 -7.26 -1.93 -8.843 -4.469 c -0.292 -0.469 -0.149 -1.086 0.32 -1.378 s 1.085 -0.149 1.377 0.319 c 1.165 1.868 4.319 2.706 7.659 3.594 c 4.648 1.236 9.917 2.636 12.487 7.253 c 0.269 0.482 0.095 1.092 -0.387 1.36 C 44.425 60.121 44.258 60.161 44.093 60.161 z" style="stroke: none; stroke-width: 1; stroke-dasharray: none; stroke-linecap: butt; stroke-linejoin: miter; stroke-miterlimit: 10; fill:#E8BD68; fill-rule: nonzero; opacity: 1;" transform=" matrix(1 0 0 1 0 0) " stroke-linecap="round" />
	<path d="M 39.385 65.122 c -0.351 0 -0.692 -0.186 -0.875 -0.514 c -2.077 -3.73 -6.152 -5.994 -10.093 -8.184 c -3.888 -2.16 -7.561 -4.2 -9.498 -7.569 c -0.275 -0.479 -0.11 -1.09 0.368 -1.365 c 0.479 -0.273 1.091 -0.11 1.365 0.369 c 1.661 2.887 5.097 4.796 8.736 6.817 c 4.187 2.325 8.515 4.73 10.869 8.959 c 0.269 0.482 0.095 1.092 -0.387 1.36 C 39.717 65.082 39.55 65.122 39.385 65.122 z" style="stroke: none; stroke-width: 1; stroke-dasharray: none; stroke-linecap: butt; stroke-linejoin: miter; stroke-miterlimit: 10; fill: #E8BD68; fill-rule: nonzero; opacity: 1;" transform=" matrix(1 0 0 1 0 0) " stroke-linecap="round" />
	<path d="M 58.628 58.532 c -0.438 0 -0.881 -0.024 -1.326 -0.075 c -0.549 -0.062 -0.943 -0.558 -0.881 -1.105 c 0.062 -0.549 0.549 -0.956 1.105 -0.881 c 4.155 0.471 8.4 -1.927 10.772 -4.511 c 1.487 -1.62 2.488 -3.485 3.372 -5.132 c 0.856 -1.594 1.595 -2.97 2.625 -3.953 c 0.398 -0.38 1.033 -0.367 1.414 0.033 c 0.381 0.399 0.366 1.033 -0.033 1.414 c -0.8 0.763 -1.469 2.009 -2.244 3.452 c -0.938 1.75 -2.004 3.732 -3.661 5.538 C 67.473 55.817 63.285 58.532 58.628 58.532 z" style="stroke: none; stroke-width: 1; stroke-dasharray: none; stroke-linecap: butt; stroke-linejoin: miter; stroke-miterlimit: 10; fill: #E8BD68; fill-rule: nonzero; opacity: 1;" transform=" matrix(1 0 0 1 0 0) " stroke-linecap="round" />
	<path d="M 61.281 52.239 c -0.559 0 -1.144 -0.034 -1.759 -0.106 c -0.548 -0.063 -0.941 -0.561 -0.877 -1.109 c 0.064 -0.548 0.543 -0.943 1.109 -0.877 c 5.466 0.634 8.115 -1.948 11.073 -6.944 c 0.281 -0.474 0.894 -0.632 1.37 -0.351 c 0.475 0.281 0.632 0.895 0.351 1.37 C 70.132 48.304 67.263 52.239 61.281 52.239 z" style="stroke: none; stroke-width: 1; stroke-dasharray: none; stroke-linecap: butt; stroke-linejoin: miter; stroke-miterlimit: 10; fill:#E8BD68; fill-rule: nonzero; opacity: 1;" transform=" matrix(1 0 0 1 0 0) " stroke-linecap="round" />
	<path d="M 59.296 89.948 c -0.293 0 -0.583 -0.128 -0.781 -0.374 c -11.727 -14.618 -10.836 -19.466 -2.29 -32.291 c 5.788 -9.44 1.392 -18.731 -4.958 -29.894 c -0.273 -0.48 -0.105 -1.091 0.375 -1.364 c 0.477 -0.274 1.089 -0.105 1.363 0.375 c 5.254 9.235 11.792 20.729 4.904 31.96 c -8.173 12.268 -8.881 16.192 2.166 29.962 c 0.346 0.431 0.276 1.061 -0.154 1.406 C 59.736 89.876 59.515 89.948 59.296 89.948 z" style="stroke: none; stroke-width: 1; stroke-dasharray: none; stroke-linecap: butt; stroke-linejoin: miter; stroke-miterlimit: 10; fill: #E8BD68; fill-rule: nonzero; opacity: 1;" transform=" matrix(1 0 0 1 0 0) " stroke-linecap="round" />
	<path d="M 37.906 49.357 H 7.193 c -2.178 0 -3.95 -1.772 -3.95 -3.95 c 0 -1.747 1.122 -3.239 2.743 -3.752 c 0.663 -1.507 2.163 -2.516 3.837 -2.516 c 0.633 0 1.255 0.148 1.823 0.426 c 1.125 -1.322 2.959 -1.969 4.708 -1.584 c 1.414 -1.292 3.476 -1.797 5.321 -1.291 c 0.829 -1.396 2.361 -2.274 4.058 -2.147 c 1.203 -1.553 3.037 -2.463 5.025 -2.463 c 3.043 0 5.599 2.106 6.225 5.008 c 1.68 0.509 2.869 2.055 2.869 3.867 c 0 0.25 -0.024 0.497 -0.071 0.742 c 1.312 0.686 2.186 2.064 2.186 3.601 C 41.966 47.536 40.145 49.357 37.906 49.357 z M 9.822 41.139 c -0.983 0 -1.852 0.669 -2.114 1.627 c -0.104 0.381 -0.422 0.665 -0.812 0.725 c -0.958 0.147 -1.653 0.954 -1.653 1.917 c 0 1.075 0.875 1.95 1.95 1.95 h 30.713 c 1.136 0 2.06 -0.924 2.06 -2.06 c 0 -0.973 -0.69 -1.821 -1.641 -2.017 c -0.303 -0.063 -0.561 -0.262 -0.697 -0.54 c -0.136 -0.278 -0.135 -0.604 0.001 -0.882 c 0.147 -0.298 0.222 -0.602 0.222 -0.904 c 0 -1.051 -0.796 -1.925 -1.851 -2.033 c -0.474 -0.048 -0.848 -0.424 -0.894 -0.898 c -0.218 -2.248 -2.088 -3.943 -4.35 -3.943 c -1.518 0 -2.905 0.774 -3.711 2.071 c -0.224 0.36 -0.651 0.542 -1.066 0.448 c -0.203 -0.045 -0.367 -0.066 -0.517 -0.066 c -1.061 0 -1.988 0.689 -2.308 1.714 c -0.086 0.277 -0.289 0.503 -0.554 0.619 c -0.266 0.116 -0.57 0.11 -0.831 -0.014 c -1.485 -0.709 -3.303 -0.314 -4.368 0.911 c -0.273 0.313 -0.711 0.425 -1.101 0.282 c -1.348 -0.496 -2.852 0.116 -3.496 1.354 c -0.142 0.271 -0.4 0.464 -0.701 0.521 c -0.302 0.057 -0.612 -0.027 -0.843 -0.229 C 10.973 41.439 10.488 41.139 9.822 41.139 z" style="stroke: none; stroke-width: 1; stroke-dasharray: none; stroke-linecap: butt; stroke-linejoin: miter; stroke-miterlimit: 10; fill: #E8BD68; fill-rule: nonzero; opacity: 1;" transform=" matrix(1 0 0 1 0 0) " stroke-linecap="round" />
</g>
</svg>