<svg xmlns="http://www.w3.org/2000/svg" xmlns:xlink="http://www.w3.org/1999/xlink" version="1.1" width="256" height="256" viewBox="0 0 256 256" xml:space="preserve">

<defs>
</defs>
<g style="stroke: none; stroke-width: 0; stroke-dasharray: none; stroke-linecap: butt; stroke-linejoin: miter; stroke-miterlimit: 10; fill: none; fill-rule: nonzero; opacity: 1;" transform="translate(1.4065934065934016 1.4065934065934016) scale(2.81 2.81)" >
	<path d="M 40.451 16.635 h -5.755 H 10.372 C 4.653 16.635 0 21.288 0 27.007 c 0 0.552 0.448 1 1 1 h 7.353 v 7.187 l -2.662 3.652 c -2.396 3.286 -3.662 7.173 -3.662 11.239 v 28.749 c 0 3.126 2.543 5.669 5.67 5.669 h 24.078 c 3.126 0 5.67 -2.543 5.67 -5.669 V 60.896 c 0 -4.514 -1.607 -8.895 -4.525 -12.337 l -1.691 -1.995 c -2.612 -3.082 -4.051 -7.004 -4.051 -11.043 v -2.015 l 5.555 2.588 c 0.135 0.063 0.279 0.094 0.422 0.094 c 0.231 0 0.461 -0.081 0.645 -0.235 c 0.298 -0.251 0.423 -0.652 0.32 -1.028 l -2.374 -8.697 l 3.108 -1.024 h 5.595 c 0.552 0 1 -0.448 1 -1 v -6.567 C 41.451 17.083 41.003 16.635 40.451 16.635 z M 10.372 18.635 h 23.324 v 4.843 l -3.476 1.145 c 0 0 0 0 0 0 l -1.115 0.367 l -3.086 1.017 H 9.353 H 2.06 C 2.555 21.861 6.094 18.635 10.372 18.635 z M 25.18 28.007 v 3.929 v 2.584 H 10.353 v -6.513 H 25.18 z M 29.706 47.856 l 1.691 1.995 c 2.612 3.081 4.051 7.004 4.051 11.044 v 17.938 c 0 2.023 -1.646 3.669 -3.67 3.669 H 7.699 c -2.023 0 -3.67 -1.646 -3.67 -3.669 V 50.085 c 0 -3.641 1.133 -7.12 3.278 -10.061 l 2.554 -3.504 h 15.345 C 25.425 40.677 27.003 44.669 29.706 47.856 z M 31.625 33.369 l -4.444 -2.07 v -3.568 l 1.486 -0.49 l 1.179 -0.388 L 31.625 33.369 z M 39.451 23.202 h -3.755 v -4.567 h 3.755 V 23.202 z" style="stroke: none; stroke-width: 1; stroke-dasharray: none; stroke-linecap: butt; stroke-linejoin: miter; stroke-miterlimit: 10; fill: rgb(0,0,0); fill-rule: nonzero; opacity: 1;" transform=" matrix(1 0 0 1 0 0) " stroke-linecap="round" />
	<path d="M 53.671 19.918 h -0.5 c -0.553 0 -1 0.448 -1 1 s 0.447 1 1 1 h 0.5 c 0.553 0 1 -0.448 1 -1 S 54.224 19.918 53.671 19.918 z" style="stroke: none; stroke-width: 1; stroke-dasharray: none; stroke-linecap: butt; stroke-linejoin: miter; stroke-miterlimit: 10; fill: rgb(0,0,0); fill-rule: nonzero; opacity: 1;" transform=" matrix(1 0 0 1 0 0) " stroke-linecap="round" />
	<path d="M 75.104 19.918 h -0.893 c -0.553 0 -1 0.448 -1 1 s 0.447 1 1 1 h 0.893 c 0.553 0 1 -0.448 1 -1 S 75.656 19.918 75.104 19.918 z" style="stroke: none; stroke-width: 1; stroke-dasharray: none; stroke-linecap: butt; stroke-linejoin: miter; stroke-miterlimit: 10; fill: rgb(0,0,0); fill-rule: nonzero; opacity: 1;" transform=" matrix(1 0 0 1 0 0) " stroke-linecap="round" />
	<path d="M 82.248 21.918 c 0.553 0 1 -0.448 1 -1 s -0.447 -1 -1 -1 h -0.893 c -0.553 0 -1 0.448 -1 1 s 0.447 1 1 1 H 82.248 z" style="stroke: none; stroke-width: 1; stroke-dasharray: none; stroke-linecap: butt; stroke-linejoin: miter; stroke-miterlimit: 10; fill: rgb(0,0,0); fill-rule: nonzero; opacity: 1;" transform=" matrix(1 0 0 1 0 0) " stroke-linecap="round" />
	<path d="M 67.959 19.918 h -0.893 c -0.553 0 -1 0.448 -1 1 s 0.447 1 1 1 h 0.893 c 0.553 0 1 -0.448 1 -1 S 68.512 19.918 67.959 19.918 z" style="stroke: none; stroke-width: 1; stroke-dasharray: none; stroke-linecap: butt; stroke-linejoin: miter; stroke-miterlimit: 10; fill: rgb(0,0,0); fill-rule: nonzero; opacity: 1;" transform=" matrix(1 0 0 1 0 0) " stroke-linecap="round" />
	<path d="M 60.814 19.918 h -0.893 c -0.553 0 -1 0.448 -1 1 s 0.447 1 1 1 h 0.893 c 0.553 0 1 -0.448 1 -1 S 61.367 19.918 60.814 19.918 z" style="stroke: none; stroke-width: 1; stroke-dasharray: none; stroke-linecap: butt; stroke-linejoin: miter; stroke-miterlimit: 10; fill: rgb(0,0,0); fill-rule: nonzero; opacity: 1;" transform=" matrix(1 0 0 1 0 0) " stroke-linecap="round" />
	<path d="M 89 19.918 h -0.5 c -0.553 0 -1 0.448 -1 1 s 0.447 1 1 1 H 89 c 0.553 0 1 -0.448 1 -1 S 89.553 19.918 89 19.918 z" style="stroke: none; stroke-width: 1; stroke-dasharray: none; stroke-linecap: butt; stroke-linejoin: miter; stroke-miterlimit: 10; fill: rgb(0,0,0); fill-rule: nonzero; opacity: 1;" transform=" matrix(1 0 0 1 0 0) " stroke-linecap="round" />
	<path d="M 48.637 26.61 l -0.487 -0.111 c -0.538 -0.123 -1.074 0.213 -1.197 0.752 c -0.123 0.539 0.214 1.075 0.752 1.198 l 0.487 0.111 c 0.075 0.017 0.149 0.025 0.224 0.025 c 0.456 0 0.868 -0.314 0.974 -0.777 C 49.512 27.269 49.175 26.733 48.637 26.61 z" style="stroke: none; stroke-width: 1; stroke-dasharray: none; stroke-linecap: butt; stroke-linejoin: miter; stroke-miterlimit: 10; fill: rgb(0,0,0); fill-rule: nonzero; opacity: 1;" transform=" matrix(1 0 0 1 0 0) " stroke-linecap="round" />
	<path d="M 74.605 32.528 l -1.082 -0.247 c -0.544 -0.125 -1.075 0.214 -1.197 0.753 c -0.123 0.539 0.214 1.074 0.752 1.197 l 1.082 0.247 c 0.075 0.017 0.15 0.025 0.224 0.025 c 0.456 0 0.868 -0.314 0.974 -0.778 C 75.48 33.187 75.144 32.651 74.605 32.528 z" style="stroke: none; stroke-width: 1; stroke-dasharray: none; stroke-linecap: butt; stroke-linejoin: miter; stroke-miterlimit: 10; fill: rgb(0,0,0); fill-rule: nonzero; opacity: 1;" transform=" matrix(1 0 0 1 0 0) " stroke-linecap="round" />
	<path d="M 57.293 28.583 l -1.082 -0.247 c -0.543 -0.125 -1.075 0.214 -1.197 0.753 c -0.123 0.539 0.214 1.074 0.752 1.197 l 1.082 0.247 c 0.075 0.017 0.15 0.025 0.224 0.025 c 0.456 0 0.868 -0.314 0.974 -0.778 C 58.168 29.241 57.831 28.706 57.293 28.583 z" style="stroke: none; stroke-width: 1; stroke-dasharray: none; stroke-linecap: butt; stroke-linejoin: miter; stroke-miterlimit: 10; fill: rgb(0,0,0); fill-rule: nonzero; opacity: 1;" transform=" matrix(1 0 0 1 0 0) " stroke-linecap="round" />
	<path d="M 65.949 30.555 l -1.082 -0.247 c -0.544 -0.125 -1.075 0.214 -1.197 0.753 c -0.123 0.539 0.214 1.074 0.752 1.197 l 1.082 0.247 c 0.075 0.017 0.15 0.025 0.224 0.025 c 0.456 0 0.868 -0.314 0.974 -0.778 C 66.824 31.214 66.487 30.678 65.949 30.555 z" style="stroke: none; stroke-width: 1; stroke-dasharray: none; stroke-linecap: butt; stroke-linejoin: miter; stroke-miterlimit: 10; fill: rgb(0,0,0); fill-rule: nonzero; opacity: 1;" transform=" matrix(1 0 0 1 0 0) " stroke-linecap="round" />
	<path d="M 82.667 34.365 l -0.487 -0.111 c -0.537 -0.123 -1.075 0.213 -1.197 0.752 c -0.123 0.539 0.214 1.075 0.752 1.198 l 0.487 0.111 c 0.075 0.017 0.149 0.025 0.224 0.025 c 0.456 0 0.868 -0.314 0.974 -0.777 C 83.542 35.024 83.205 34.488 82.667 34.365 z" style="stroke: none; stroke-width: 1; stroke-dasharray: none; stroke-linecap: butt; stroke-linejoin: miter; stroke-miterlimit: 10; fill: rgb(0,0,0); fill-rule: nonzero; opacity: 1;" transform=" matrix(1 0 0 1 0 0) " stroke-linecap="round" />
	<path d="M 48.191 13.277 l -0.487 0.111 c -0.538 0.123 -0.875 0.659 -0.752 1.198 c 0.105 0.463 0.518 0.777 0.974 0.777 c 0.074 0 0.148 -0.008 0.224 -0.025 l 0.487 -0.111 c 0.538 -0.123 0.875 -0.659 0.752 -1.198 C 49.266 13.49 48.728 13.154 48.191 13.277 z" style="stroke: none; stroke-width: 1; stroke-dasharray: none; stroke-linecap: butt; stroke-linejoin: miter; stroke-miterlimit: 10; fill: rgb(0,0,0); fill-rule: nonzero; opacity: 1;" transform=" matrix(1 0 0 1 0 0) " stroke-linecap="round" />
	<path d="M 73.3 9.581 c 0.073 0 0.148 -0.008 0.224 -0.025 l 1.082 -0.247 c 0.538 -0.123 0.875 -0.659 0.752 -1.197 C 75.235 7.573 74.7 7.232 74.16 7.359 l -1.082 0.247 c -0.538 0.123 -0.875 0.659 -0.752 1.197 C 72.432 9.267 72.844 9.581 73.3 9.581 z" style="stroke: none; stroke-width: 1; stroke-dasharray: none; stroke-linecap: butt; stroke-linejoin: miter; stroke-miterlimit: 10; fill: rgb(0,0,0); fill-rule: nonzero; opacity: 1;" transform=" matrix(1 0 0 1 0 0) " stroke-linecap="round" />
	<path d="M 64.644 11.553 c 0.073 0 0.148 -0.008 0.224 -0.025 l 1.082 -0.247 c 0.538 -0.123 0.875 -0.659 0.752 -1.197 s -0.656 -0.879 -1.197 -0.753 l -1.082 0.247 c -0.538 0.123 -0.875 0.659 -0.752 1.197 C 63.775 11.239 64.188 11.553 64.644 11.553 z" style="stroke: none; stroke-width: 1; stroke-dasharray: none; stroke-linecap: butt; stroke-linejoin: miter; stroke-miterlimit: 10; fill: rgb(0,0,0); fill-rule: nonzero; opacity: 1;" transform=" matrix(1 0 0 1 0 0) " stroke-linecap="round" />
	<path d="M 56.848 11.304 l -1.082 0.247 c -0.538 0.123 -0.875 0.659 -0.752 1.197 c 0.105 0.464 0.518 0.778 0.974 0.778 c 0.073 0 0.148 -0.008 0.224 -0.025 l 1.082 -0.247 c 0.538 -0.123 0.875 -0.659 0.752 -1.197 S 57.389 11.178 56.848 11.304 z" style="stroke: none; stroke-width: 1; stroke-dasharray: none; stroke-linecap: butt; stroke-linejoin: miter; stroke-miterlimit: 10; fill: rgb(0,0,0); fill-rule: nonzero; opacity: 1;" transform=" matrix(1 0 0 1 0 0) " stroke-linecap="round" />
	<path d="M 82.222 5.521 l -0.487 0.111 c -0.538 0.123 -0.875 0.659 -0.752 1.198 c 0.105 0.463 0.518 0.777 0.974 0.777 c 0.074 0 0.148 -0.008 0.224 -0.025 l 0.487 -0.111 c 0.538 -0.123 0.875 -0.659 0.752 -1.198 C 83.296 5.735 82.759 5.398 82.222 5.521 z" style="stroke: none; stroke-width: 1; stroke-dasharray: none; stroke-linecap: butt; stroke-linejoin: miter; stroke-miterlimit: 10; fill: rgb(0,0,0); fill-rule: nonzero; opacity: 1;" transform=" matrix(1 0 0 1 0 0) " stroke-linecap="round" />
</g>
</svg>