<svg xmlns="http://www.w3.org/2000/svg" xmlns:xlink="http://www.w3.org/1999/xlink" version="1.1" width="256" height="256" viewBox="0 0 256 256" xml:space="preserve">

<defs>
</defs>
<g style="stroke: none; stroke-width: 0; stroke-dasharray: none; stroke-linecap: butt; stroke-linejoin: miter; stroke-miterlimit: 10; fill: none; fill-rule: nonzero; opacity: 1;" transform="translate(1.4065934065934016 1.4065934065934016) scale(2.81 2.81)" >
	<path d="M 51.358 90 c -0.238 0 -0.472 -0.086 -0.654 -0.244 c -0.22 -0.189 -0.346 -0.466 -0.346 -0.756 V 58.708 c 0 -0.553 0.447 -1 1 -1 h 9.733 l 1.332 -10.388 H 51.358 c -0.553 0 -1 -0.447 -1 -1 v -7.909 c 0 -3.477 0.845 -7.031 7.107 -7.031 l 5.524 -0.002 v -9.186 c -1.686 -0.165 -4.913 -0.383 -8.508 -0.383 c -9.298 0 -14.849 5.748 -14.849 15.375 v 9.136 c 0 0.553 -0.448 1 -1 1 h -9.64 v 10.388 h 9.64 c 0.552 0 1 0.447 1 1 v 30.291 c 0 0.29 -0.126 0.566 -0.346 0.757 c -0.22 0.188 -0.512 0.272 -0.798 0.232 C 16.547 86.79 0 67.549 0 45.233 C 0 20.292 20.187 0 45 0 c 24.813 0 45 20.292 45 45.233 c 0 22.321 -16.551 41.562 -38.498 44.756 C 51.454 89.996 51.406 90 51.358 90 z M 52.358 59.708 v 28.12 C 72.759 84.285 88 66.178 88 45.233 C 88 21.394 68.71 2 45 2 C 21.29 2 2 21.394 2 45.233 C 2 66.174 17.237 84.28 37.633 87.826 V 59.708 h -9.64 c -0.552 0 -1 -0.447 -1 -1 V 46.32 c 0 -0.552 0.448 -1 1 -1 h 9.64 v -8.136 c 0 -10.717 6.456 -17.375 16.849 -17.375 c 4.476 0 8.428 0.335 9.641 0.497 c 0.496 0.066 0.867 0.49 0.867 0.991 v 11.08 c 0 0.552 -0.447 1 -1 1 l -6.524 0.003 c -4.317 0 -5.107 1.694 -5.107 5.031 v 6.909 h 11.202 c 0.287 0 0.561 0.124 0.751 0.339 c 0.189 0.216 0.277 0.502 0.241 0.788 l -1.589 12.388 c -0.064 0.499 -0.489 0.873 -0.992 0.873 H 52.358 z" style="stroke: none; stroke-width: 1; stroke-dasharray: none; stroke-linecap: butt; stroke-linejoin: miter; stroke-miterlimit: 10; fill: #337858; fill-rule: nonzero; opacity: 1;" transform=" matrix(1 0 0 1 0 0) " stroke-linecap="round" />
</g>
</svg>